<svg viewBox="0 0 100 100" xmlns="http://www.w3.org/2000/svg" fill="none">
  <defs>
    <linearGradient id="g" x1="50" y1="95" x2="50" y2="5" gradientUnits="userSpaceOnUse">
      <stop offset="0%" stop-color="#4F8EF7"/>
      <stop offset="100%" stop-color="#7C3AED"/>
    </linearGradient>
  </defs>

  <!-- Palm -->
  <path d="M20 68 Q16 82 20 92 Q50 99 80 92 Q84 82 80 68 Z" fill="url(#g)"/>

  <!-- Thumb -->
  <path d="M18 70 Q12 58 14 46 Q16 39 21 40 Q26 41 26 50 L26 68 Z" fill="url(#g)"/>

  <!-- Index finger -->
  <rect x="27" y="24" width="12" height="48" rx="6" fill="url(#g)"/>

  <!-- Middle finger -->
  <rect x="41" y="16" width="12" height="56" rx="6" fill="url(#g)"/>

  <!-- Ring finger -->
  <rect x="55" y="24" width="12" height="48" rx="6" fill="url(#g)"/>

  <!-- Pinky -->
  <rect x="69" y="34" width="11" height="38" rx="5.5" fill="url(#g)"/>

  <!-- Tracking dots on fingertips -->
  <circle cx="33" cy="26" r="2.2" fill="white" opacity="0.75"/>
  <circle cx="33" cy="36" r="1.6" fill="white" opacity="0.45"/>
  <circle cx="47" cy="18" r="2.2" fill="white" opacity="0.75"/>
  <circle cx="47" cy="28" r="1.6" fill="white" opacity="0.45"/>
  <circle cx="61" cy="26" r="2.2" fill="white" opacity="0.75"/>
  <circle cx="61" cy="36" r="1.6" fill="white" opacity="0.45"/>
  <circle cx="74.5" cy="36" r="2.2" fill="white" opacity="0.75"/>

  <!-- Open book -->
  <path d="M37 21 Q47 17 50 19 Q53 17 63 21 L63 29 Q53 25 50 27 Q47 25 37 29 Z" fill="white" opacity="0.9"/>
  <line x1="50" y1="19" x2="50" y2="27" stroke="#C4B5FD" stroke-width="1.2"/>

  <!-- Graduation cap brim -->
  <rect x="32" y="11" width="36" height="6" rx="2.5" fill="#5B21B6"/>

  <!-- Cap diamond board -->
  <polygon points="50,4 66,11 50,18 34,11" fill="#6D28D9"/>

  <!-- Cap top cylinder -->
  <rect x="45" y="5" width="10" height="6" rx="2" fill="#4C1D95"/>

  <!-- Tassel -->
  <line x1="66" y1="11" x2="68" y2="22" stroke="#6D28D9" stroke-width="2" stroke-linecap="round"/>
  <circle cx="68" cy="24" r="2.8" fill="#6D28D9"/>

  <!-- Sparkles -->
  <path d="M28 8 L29.2 5 L30.4 8 L33.4 9.2 L30.4 10.4 L29.2 13.4 L28 10.4 L25 9.2 Z" fill="#A78BFA" opacity="0.9"/>
  <path d="M70 6 L71 3.8 L72 6 L74.2 7 L72 8 L71 10.2 L70 8 L67.8 7 Z" fill="#60A5FA" opacity="0.85"/>
  <circle cx="24" cy="16" r="1.4" fill="#C4B5FD" opacity="0.7"/>
  <circle cx="76" cy="16" r="1.2" fill="#93C5FD" opacity="0.7"/>
</svg>
