<?xml version="1.0" standalone="no"?>
<!DOCTYPE svg PUBLIC "-//W3C//DTD SVG 20010904//EN"
 "http://www.w3.org/TR/2001/REC-SVG-20010904/DTD/svg10.dtd">
<svg version="1.0" xmlns="http://www.w3.org/2000/svg"
 width="1024.000000pt" height="1024.000000pt" viewBox="0 0 1024.000000 1024.000000"
 preserveAspectRatio="xMidYMid meet">

<g transform="translate(0.000000,1024.000000) scale(0.100000,-0.100000)"
fill="#000000" stroke="none">
<path d="M4890 8659 c-129 -55 -255 -108 -280 -119 -25 -11 -178 -74 -340
-140 -162 -67 -335 -137 -383 -157 -48 -20 -84 -39 -80 -43 4 -4 296 -130 648
-280 431 -184 651 -274 675 -274 30 0 110 31 285 110 85 38 712 306 728 311
16 5 17 -7 17 -160 0 -141 -2 -167 -17 -178 -9 -8 -22 -29 -30 -47 -11 -27
-11 -37 2 -69 14 -32 14 -39 0 -59 -23 -36 -18 -72 14 -105 79 -79 212 26 142
112 -16 20 -17 26 -6 39 27 30 27 64 2 102 -23 33 -25 48 -32 215 -6 146 -5
180 6 189 8 6 55 28 104 49 105 45 115 52 89 61 -19 7 -517 217 -946 398 -278
117 -350 146 -357 145 -3 0 -112 -45 -241 -100z"/>
<path d="M3131 7830 c-1 -19 -8 -53 -16 -75 -17 -48 -18 -55 -4 -35 7 10 9 11
7 2 -2 -8 -6 -12 -10 -10 -9 5 -48 -34 -43 -43 3 -4 0 -11 -6 -15 -8 -5 -9 -3
-4 6 6 10 4 11 -11 5 -10 -4 -39 -13 -63 -20 l-43 -12 60 -22 c56 -20 112 -66
112 -92 0 -6 4 -8 9 -5 5 4 7 -4 3 -16 -3 -14 -1 -19 6 -14 8 5 10 -2 5 -25
-5 -24 -3 -30 7 -24 8 5 10 21 6 49 -4 29 -3 37 4 26 8 -13 10 -13 10 2 0 9
11 30 25 46 13 16 21 33 17 37 -4 5 -2 5 5 1 6 -3 24 -1 40 6 38 17 39 18 23
28 -12 8 -11 10 5 10 13 0 6 7 -20 19 -22 10 -48 28 -59 39 -10 12 -23 19 -29
15 -5 -3 -7 -2 -4 4 3 5 2 23 -3 39 l-10 29 4 -30 c4 -28 3 -28 -10 -10 -17
23 -18 42 -2 47 9 3 9 13 1 39 l-11 34 -1 -35z m114 -188 c-3 -3 -11 0 -18 7
-9 10 -8 11 6 5 10 -3 15 -9 12 -12z m-212 1 c-7 -2 -13 -9 -13 -14 0 -6 4 -8
9 -5 5 3 11 0 14 -8 5 -11 0 -12 -24 -3 -33 13 -37 23 -11 30 23 6 40 7 25 0z
m70 -79 c28 -38 16 -36 -17 3 -15 18 -22 31 -15 28 8 -3 22 -17 32 -31z m65
-14 c-7 -10 -14 -17 -17 -15 -4 4 18 35 25 35 2 0 -1 -9 -8 -20z"/>
<path d="M7040 7801 c-17 -82 -54 -125 -128 -150 l-53 -18 61 -22 c45 -17 66
-31 85 -59 14 -20 25 -41 25 -47 0 -5 5 -28 12 -50 l11 -40 8 41 c17 93 58
144 129 160 52 12 56 17 20 28 -94 30 -124 62 -144 159 l-13 62 -13 -64z"/>
<path d="M4382 7658 l3 -182 165 -86 c91 -48 242 -127 335 -176 94 -49 189
-97 212 -106 l42 -17 209 112 c115 62 280 148 366 192 l156 80 0 183 c0 103
-4 182 -9 182 -5 0 -157 -65 -339 -144 -181 -79 -345 -149 -365 -157 -35 -12
-42 -10 -249 79 -117 50 -280 121 -362 157 -82 36 -153 65 -158 65 -5 0 -7
-82 -6 -182z"/>
<path d="M3295 7630 c-3 -5 1 -10 9 -10 9 0 16 5 16 10 0 6 -4 10 -9 10 -6 0
-13 -4 -16 -10z"/>
<path d="M3925 7263 c3 -16 14 -113 25 -218 10 -104 34 -330 52 -502 l33 -311
110 -28 c292 -71 509 -181 768 -387 l98 -78 37 12 c20 6 41 15 45 19 4 4 3
218 -3 476 l-11 469 -52 48 c-264 243 -582 408 -969 502 -133 32 -139 32 -133
-2z"/>
<path d="M6280 7283 c-66 -12 -287 -79 -386 -118 -166 -65 -343 -156 -470
-242 -85 -58 -235 -188 -239 -207 -8 -42 -25 -910 -18 -917 4 -4 35 -14 68
-23 l59 -15 71 55 c174 138 380 258 550 322 78 30 223 75 277 86 32 7 33 9 48
166 16 162 56 558 75 730 8 80 15 151 15 158 0 12 -5 13 -50 5z"/>
<path d="M3760 7000 c0 -29 99 -920 105 -947 4 -18 14 -22 63 -27 335 -33 487
-76 811 -232 84 -41 155 -74 157 -74 47 0 -267 220 -396 278 -143 64 -309 109
-472 128 -49 5 -57 9 -63 31 -3 14 -21 160 -40 326 -19 166 -40 348 -46 405
-13 112 -14 114 -81 126 -34 6 -38 5 -38 -14z m17 -27 c-3 -10 -5 -4 -5 12 0
17 2 24 5 18 2 -7 2 -21 0 -30z m80 -5 c-3 -8 -6 -5 -6 6 -1 11 2 17 5 13 3
-3 4 -12 1 -19z"/>
<path d="M6433 7007 c-51 -13 -44 14 -78 -312 -28 -273 -52 -485 -60 -531 l-5
-31 -108 -18 c-254 -41 -522 -163 -735 -335 -98 -79 -82 -76 133 28 250 120
508 197 702 209 54 3 101 10 104 14 5 9 90 770 100 900 4 51 3 88 -2 88 -5 -1
-28 -7 -51 -12z"/>
<path d="M7414 6845 c-19 -29 -11 -60 22 -81 22 -15 26 -15 49 0 46 30 23 106
-33 106 -12 0 -29 -11 -38 -25z"/>
<path d="M2746 6778 c-21 -30 -20 -50 4 -76 53 -57 137 10 95 74 -21 32 -77
33 -99 2z m94 -9 c17 -30 8 -31 -17 -3 -15 17 -17 24 -8 24 8 0 19 -9 25 -21z
m-59 -59 c13 -8 26 -7 42 0 21 11 21 10 3 -4 -25 -20 -50 -20 -66 -1 -15 17
-7 19 21 5z"/>
<path d="M7002 6340 c-16 -74 -56 -118 -127 -141 l-50 -16 43 -12 c68 -19 110
-65 131 -141 l18 -65 12 58 c16 73 56 122 114 139 46 12 71 28 46 28 -8 0 -38
12 -66 26 -40 19 -57 35 -72 68 -12 23 -21 53 -21 67 0 53 -16 47 -28 -11z"/>
<path d="M3196 6318 c-4 -27 -4 -53 0 -60 4 -7 3 -8 -4 -4 -7 4 -12 3 -12 -3
0 -5 -3 -18 -6 -28 -6 -16 -5 -16 10 2 17 20 17 20 6 -2 -6 -13 -16 -22 -23
-20 -7 1 -11 -4 -9 -10 1 -7 -1 -12 -5 -11 -15 3 -43 -14 -37 -23 3 -5 -3 -6
-12 -2 -13 5 -15 3 -9 -7 5 -8 4 -11 -2 -7 -5 3 -27 1 -49 -5 l-39 -11 49 -13
c86 -22 127 -65 149 -153 l14 -55 5 46 c3 25 13 60 22 78 19 39 20 43 4 34 -7
-5 -8 -3 -4 5 5 7 10 10 13 8 2 -3 28 6 56 19 29 13 62 24 75 24 13 0 21 4 18
9 -6 9 -93 36 -114 34 -7 -1 -11 1 -8 4 3 3 -6 19 -19 35 -13 16 -29 48 -35
71 -24 94 -26 96 -34 45z m26 -53 c3 -13 2 -22 -2 -20 -4 3 -10 16 -12 30 -3
13 -2 22 2 20 4 -3 10 -16 12 -30z m138 -129 c0 -2 -7 -7 -16 -10 -8 -3 -12
-2 -9 4 6 10 25 14 25 6z m-283 -12 c-3 -3 -12 -4 -19 -1 -8 3 -5 6 6 6 11 1
17 -2 13 -5z m123 -99 c0 -4 -9 4 -20 18 -11 14 -20 28 -20 32 0 4 9 -4 20
-18 11 -14 20 -28 20 -32z"/>
<path d="M5140 5661 c-49 -16 -87 -40 -118 -76 -59 -67 -67 -90 -68 -215 -2
-124 -126 -1248 -143 -1293 -6 -14 -22 -34 -36 -43 -31 -20 -65 -9 -90 30 -37
57 -290 1123 -298 1258 -8 123 -51 194 -147 244 -74 38 -202 13 -274 -54 -32
-30 -66 -97 -65 -127 1 -16 2 -16 9 5 6 18 8 6 8 -41 0 -37 3 -77 7 -90 4 -13
4 -21 -1 -16 -4 4 -13 33 -20 65 -7 31 -13 47 -13 34 -1 -13 10 -67 24 -120
13 -53 35 -185 49 -292 14 -107 50 -386 80 -620 30 -234 67 -519 81 -635 15
-115 28 -210 28 -211 1 -1 65 -18 142 -38 367 -97 591 -288 697 -596 17 -51
58 -254 58 -289 0 -9 -15 27 -34 79 -78 224 -201 406 -359 533 -79 64 -251
146 -392 187 -134 39 -176 65 -285 176 -64 66 -74 79 -40 54 36 -27 32 -20
-22 31 -65 62 -125 138 -218 274 -114 167 -195 277 -260 352 -60 69 -84 89
-147 120 -66 32 -84 37 -145 37 -58 -1 -80 -6 -136 -35 -54 -28 -74 -45 -107
-92 -38 -56 -40 -62 -40 -135 0 -65 4 -85 28 -127 36 -66 116 -167 127 -160 5
3 12 0 16 -6 4 -8 3 -9 -4 -5 -7 4 -12 4 -12 1 0 -11 71 -100 80 -100 5 0 12
-4 17 -9 5 -5 3 -6 -4 -2 -20 11 -16 -1 26 -72 60 -104 160 -308 256 -522 262
-590 409 -830 638 -1045 191 -181 400 -288 697 -356 111 -26 435 -37 577 -20
343 43 614 175 800 391 186 217 298 474 389 895 69 320 109 447 205 652 83
179 259 564 259 568 0 14 111 242 148 305 79 134 90 197 48 287 -68 145 -269
172 -382 51 -40 -42 -54 -69 -69 -133 -13 -59 -141 -276 -343 -585 -153 -235
-174 -260 -214 -260 -59 0 -58 11 71 540 40 162 90 367 111 456 22 88 52 187
66 220 36 79 39 189 7 249 -75 141 -255 179 -371 79 -58 -50 -82 -101 -92
-198 -5 -45 -18 -106 -30 -136 -12 -30 -57 -156 -100 -280 -43 -124 -114 -329
-159 -457 -90 -260 -111 -309 -141 -318 -27 -8 -68 18 -80 51 -13 34 -13 1176
0 1229 17 71 14 169 -8 217 -24 52 -69 100 -120 124 -41 20 -124 28 -162 15z
m-945 -91 c19 -8 19 -9 -2 -9 -12 -1 -25 4 -28 9 -7 12 2 12 30 0z m-82 -7
c-7 -2 -19 -2 -25 0 -7 3 -2 5 12 5 14 0 19 -2 13 -5z m-78 -28 c-22 -13 -48
-29 -57 -35 -10 -6 -18 -8 -18 -5 0 8 92 65 104 65 6 0 -7 -11 -29 -25z m226
4 l24 -20 -30 17 c-39 24 -40 24 -28 24 6 0 21 -9 34 -21z m1007 -15 c77 -54
64 -180 -23 -221 -32 -15 -40 -16 -78 -3 -99 35 -118 176 -29 224 36 20 102
20 130 0z m-957 -21 c13 -16 12 -17 -3 -4 -10 7 -18 15 -18 17 0 8 8 3 21 -13z
m-369 -52 c-9 -16 -18 -28 -21 -26 -4 5 27 55 34 55 2 0 -4 -13 -13 -29z m127
-1 c-28 -22 -14 -27 15 -5 29 22 98 19 130 -6 74 -58 74 -160 0 -218 -49 -39
-138 -18 -174 41 -24 39 -26 106 -5 134 20 26 19 39 -2 23 -10 -7 -5 1 11 19
17 18 34 32 39 32 5 0 -1 -9 -14 -20z m-58 -155 c8 -28 8 -29 -6 -11 -8 11
-15 31 -14 45 1 26 3 23 20 -34z m2245 22 c64 -58 55 -152 -19 -197 -52 -32
-93 -26 -139 20 -39 38 -40 42 -36 90 11 109 118 157 194 87z m-2161 -125 c-3
-3 -11 0 -18 7 -9 10 -8 11 6 5 10 -3 15 -9 12 -12z m1119 -8 c11 -28 6 -91
-8 -103 -7 -6 -21 -9 -30 -5 -19 7 -22 73 -6 105 13 23 36 25 44 3z m-1064 -4
c18 -12 2 -12 -25 0 -13 6 -15 9 -5 9 8 0 22 -4 30 -9z m48 -93 c6 -7 15 -32
20 -55 8 -34 7 -46 -5 -57 -23 -23 -50 -2 -58 44 -11 66 13 104 43 68z m1955
-112 c-4 -52 -23 -86 -47 -83 -27 4 -32 35 -12 83 12 29 20 36 38 33 19 -2 23
-9 21 -33z m-953 10 c14 -16 2 -116 -15 -122 -25 -7 -38 17 -37 66 0 28 4 56
7 61 9 14 31 12 45 -5z m-949 -125 c4 -14 7 -42 8 -63 1 -34 -1 -38 -21 -35
-27 4 -53 68 -43 106 8 32 47 26 56 -8z m1842 -54 c8 -20 -9 -86 -26 -104 -9
-8 -23 -12 -32 -8 -14 5 -16 14 -10 44 12 65 53 107 68 68z m933 -30 c28 -28
34 -42 34 -76 0 -36 -6 -48 -39 -81 -29 -29 -47 -39 -70 -39 -70 0 -121 51
-121 121 0 33 6 47 34 75 29 29 41 34 81 34 40 0 52 -5 81 -34z m-1842 -2 c12
-32 6 -104 -9 -110 -37 -15 -61 58 -35 107 13 23 36 25 44 3z m-897 -124 c15
-29 17 -96 4 -104 -17 -11 -40 6 -50 36 -13 35 -14 81 -4 92 13 13 37 1 50
-24z m1741 -64 c5 -44 -17 -88 -42 -84 -16 2 -21 10 -20 33 1 17 7 43 13 58
14 37 45 33 49 -7z m-854 -22 c12 -32 6 -101 -10 -115 -14 -11 -18 -10 -30 6
-27 36 -12 125 20 125 8 0 17 -7 20 -16z m1686 -101 c0 -13 -7 -38 -16 -54
-12 -24 -21 -30 -42 -27 -37 4 -38 27 -2 76 32 45 60 48 60 5z m-2536 -15 c8
-13 16 -41 18 -63 3 -37 1 -40 -23 -43 -29 -3 -39 15 -39 79 0 54 19 65 44 27z
m1642 -33 c8 -21 -3 -77 -20 -100 -12 -17 -16 -17 -31 -5 -21 17 -15 73 11
101 21 23 33 24 40 4z m-798 -107 c-3 -55 -5 -63 -23 -63 -17 0 -20 8 -23 49
-4 60 2 76 28 76 19 0 21 -5 18 -62z m1592 -27 c0 -29 -39 -81 -60 -81 -40 0
-34 46 13 97 15 17 23 20 34 12 7 -6 13 -19 13 -28z m-2400 -36 c6 -8 14 -32
17 -54 5 -33 2 -42 -12 -47 -25 -10 -55 29 -55 70 0 47 24 62 50 31z m-1134
-36 c38 -35 54 -72 54 -125 0 -41 -5 -51 -40 -86 -39 -40 -41 -40 -100 -36
-46 3 -66 10 -86 29 -76 70 -71 179 9 230 45 28 127 22 163 -12z m2682 -1 c5
-40 -24 -100 -45 -96 -14 3 -18 13 -17 46 1 67 55 110 62 50z m-740 -98 c2
-27 -3 -53 -11 -64 -12 -17 -14 -17 -30 -1 -20 19 -23 85 -5 103 24 24 43 9
46 -38z m1490 -10 c3 -33 -39 -86 -61 -77 -23 9 -21 49 4 81 25 32 53 30 57
-4z m-2248 -59 c17 -42 10 -86 -14 -86 -22 0 -53 72 -43 99 10 26 43 19 57
-13z m1434 -63 c-7 -34 -14 -44 -32 -46 -13 -2 -22 2 -23 10 -3 33 4 65 18 87
14 21 16 22 31 8 12 -13 13 -25 6 -59z m724 -31 c5 -26 -36 -87 -59 -87 -38 0
-33 44 9 93 19 21 45 18 50 -6z m-1414 -13 c17 -45 -6 -106 -34 -89 -11 7 -14
88 -3 98 11 12 31 7 37 -9z m-1991 -1 c-7 -2 -21 -2 -30 0 -10 3 -4 5 12 5 17
0 24 -2 18 -5z m156 -58 c34 -39 42 -85 14 -85 -27 0 -73 51 -73 80 0 51 17
52 59 5z m1131 -10 c7 -9 13 -32 14 -53 1 -31 -3 -38 -21 -40 -18 -3 -24 4
-34 37 -18 60 8 96 41 56z m1346 -19 c3 -8 0 -32 -6 -55 -8 -29 -16 -41 -29
-41 -20 0 -33 22 -26 43 20 56 26 67 40 67 9 0 18 -6 21 -14z m674 -70 c0 -33
-42 -81 -63 -73 -23 9 -21 39 4 71 27 34 59 35 59 2z m-1325 -57 c0 -37 -3
-44 -20 -44 -15 0 -21 8 -23 33 -4 35 13 65 32 59 6 -2 11 -24 11 -48z m-1711
-12 c33 -44 34 -77 3 -77 -34 0 -72 55 -68 98 2 24 40 12 65 -21z m1050 -23
c9 -8 16 -31 16 -50 0 -31 -3 -35 -22 -32 -15 2 -25 13 -31 35 -16 54 5 80 37
47z m1251 -24 c3 -11 2 -28 -4 -37 -8 -13 -10 -14 -11 -4 0 11 -4 9 -15 -5
-14 -18 -14 -18 -15 8 0 54 31 81 45 38z m645 -38 c0 -4 -9 -22 -20 -39 -30
-50 -85 -41 -59 9 23 45 40 58 60 47 11 -5 19 -13 19 -17z m-2864 -57 c12 -8
27 -28 34 -45 11 -27 11 -34 -3 -47 -15 -15 -19 -13 -46 16 -29 31 -40 69 -24
84 9 10 16 9 39 -8z m2762 -102 c4 -28 -40 -75 -62 -67 -21 8 -20 22 4 62 23
38 53 40 58 5z m-2641 -92 c26 -38 25 -54 -1 -59 -21 -4 -43 13 -62 50 -30 58
25 66 63 9z m2553 -55 c0 -8 -9 -24 -20 -37 l-20 -24 17 37 c20 41 23 45 23
24z m-2461 -85 c42 -59 14 -96 -36 -49 -29 28 -32 78 -4 78 11 0 29 -13 40
-29z m103 -139 c36 -33 33 -62 -7 -62 -20 0 -29 8 -39 32 -14 32 -12 58 5 58
5 0 23 -13 41 -28z"/>
<path d="M3216 5574 c-23 -23 -20 -61 7 -78 27 -18 71 -10 63 11 -3 8 -1 11 4
8 6 -4 10 7 10 24 0 46 -52 68 -84 35z m60 -10 c18 -14 18 -15 -4 -4 -49 24
-74 -23 -30 -54 25 -18 17 -21 -13 -6 -21 12 -25 50 -7 68 16 16 30 15 54 -4z"/>
</g>
</svg>
